<svg width="102" height="96" viewBox="0 0 102 96" xmlns="http://www.w3.org/2000/svg" alt="Oculus Logo">
<path d="M100.51 89.7113C100.738 90.0651 100.925 90.4454 101.019 90.8555C101.205 91.6668 101.415 93.0966 100.854 93.958C100.036 95.2123 99.3538 96 97.1045 96C95.2453 96 93.9393 93.991 93.918 93.958L89.5395 86.3352C88.5354 84.5871 89.1154 82.3569 90.844 81.3195C92.5572 80.2913 94.7773 80.8089 95.8591 82.4888L100.51 89.7113ZM74.7969 33.7949C85.8746 33.7951 94.8545 42.9401 94.8545 54.2207C94.8545 59.5669 92.8375 64.4333 89.5361 68.0739C88.2109 69.5353 87.826 71.7237 88.9275 73.3603L89.2703 73.8699C89.6051 74.3672 90.1231 74.7118 90.7113 74.8282L91.152 74.9155C91.4814 74.9807 91.7695 75.1784 91.9487 75.4624C92.3108 76.036 92.1367 76.7947 91.5609 77.1533L87.1028 79.9287C86.526 80.2878 85.7661 80.0927 85.4336 79.5001C85.2304 79.1379 85.2304 78.6961 85.4336 78.3339L85.5511 78.1245C85.8529 77.5867 85.8229 76.9241 85.4739 76.4156L84.7626 75.3793C83.7603 73.919 81.8598 73.4293 80.155 73.9094C78.4494 74.3897 76.6525 74.6465 74.7969 74.6465C63.719 74.6465 54.7383 65.5014 54.7383 54.2207C54.7383 42.94 63.7191 33.7949 74.7969 33.7949ZM56.5822 69.4473C57.0408 69.4473 57.4661 69.6306 57.7866 69.9586C59.1389 71.3422 57.8328 76.5029 55.8981 76.5029H27.2698C25.512 76.5029 24.5972 74.4868 25.4951 72.9756C25.5109 72.9491 25.5265 72.9225 25.542 72.8958C26.6588 70.975 28.5215 69.4473 30.7434 69.4473H56.5822ZM74.6094 38.9941C66.1198 38.9941 59.2373 45.8115 59.2373 54.2207C59.2373 62.63 66.1198 69.4473 74.6094 69.4473C83.0988 69.4472 89.9805 62.6299 89.9805 54.2207C89.9804 45.8115 83.0988 38.9943 74.6094 38.9941ZM52.5625 61.5518C53.4386 64.0855 51.7722 67.2188 49.0913 67.2188H4.68359C4.65479 67.2187 2.06852 67.2084 0.771484 65.3623C-0.717168 63.2428 2.02369 60.9053 4.61378 60.9053H51.6612C52.0678 60.9053 52.4273 61.1684 52.5625 61.5518ZM72.2832 49.207C73.0514 47.7417 73.4648 45.6566 75.1192 45.6803C75.8783 45.6911 76.6443 45.774 77.2715 45.9912C79.3578 46.714 80.7266 48.0935 81.7324 49.7646C82.6263 51.2501 82.6699 52.7044 82.6699 54.2207C82.6699 55.7371 82.1508 57.3176 81.1699 58.4912C79.4603 60.5368 77.2715 61.0547 77.2715 61.0547C77.232 61.0681 73.6675 62.2743 70.7832 61.0547C68.2356 59.9774 67.4087 58.863 66.6338 56.2197C66.4412 55.5627 66.3693 54.7691 66.3615 53.9891C66.3451 52.3522 68.334 51.8781 69.8457 51.25C70.7148 50.8887 71.8519 50.0293 72.2832 49.207ZM88.8564 0C90.7199 0.000167785 92.2305 1.49694 92.2305 3.34277V26.593C92.2305 30.975 86.4659 33.7245 82.2516 32.5238C80.6657 32.0719 79.0108 31.7719 77.3057 31.6416L77.1699 31.6309C76.6003 31.5884 76.0248 31.5674 75.4443 31.5674H75.3594C62.1075 31.5674 51.3644 41.7924 51.3643 54.4062C51.3643 56.8115 49.5877 59.0488 47.1824 59.0488H5C2.23858 59.0488 0 56.8103 0 54.0488V3.34277C5.07213e-07 1.497 1.51068 0.000258919 3.37402 0H88.8564ZM32.9678 38.9248C32.1779 38.7575 31.4006 39.26 31.2236 40.0527L29.5137 47.7217L29.2764 48.5195C29.0891 49.1478 28.5139 49.5781 27.8623 49.5781H24.3486C24.1602 49.5782 23.9805 49.4413 23.9805 49.2529V49.0215C23.9804 47.9961 23.1543 47.1652 22.1357 47.165H7.74805C6.72933 47.1651 5.90335 47.996 5.90332 49.0215V53.1064C5.90339 54.1319 6.72936 54.9639 7.74805 54.9639H22.1357C23.1543 54.9637 23.9804 54.1318 23.9805 53.1064C23.9805 52.9888 24.092 52.9031 24.2091 52.9142C24.2551 52.9186 24.3016 52.9209 24.3486 52.9209H30.4023C31.074 52.9208 31.6608 52.4639 31.8301 51.8096L34.6582 40.873C34.8703 40.0526 34.3582 39.2198 33.5342 39.0449L32.9678 38.9248ZM20.8438 11.5127C19.5034 11.3519 18.9171 13.0864 19.6559 14.2162C19.7555 14.3685 19.8453 14.5205 19.9219 14.6699C20.7631 16.3128 20.7799 16.4566 21.3975 18.1973C22.3197 20.7969 22.0582 20.9052 22.3203 22.8398C22.5824 24.7743 22.7379 25.4395 23.4268 26.7393C24.1155 28.0389 24.7242 29.1036 26.3779 30.0811C28.0319 31.0585 28.6091 31.3873 30.0674 31.5674C30.6384 31.6379 31.2356 31.6743 31.8128 31.6889C33.876 31.7412 35.852 32.7781 36.7923 34.6152L37.9962 36.9675C38.2425 37.4489 38.4092 37.967 38.4896 38.5017L39.1374 42.8074C39.2381 43.477 39.2018 44.1601 39.0306 44.8152L38.3682 47.3506L37.6398 49.7932C37.425 50.5135 37.7941 51.279 38.4915 51.5595C39.3063 51.8873 40.2235 51.4243 40.4438 50.5742L41.1348 47.9072L41.9918 45.6062C42.1572 45.162 42.385 44.7436 42.6682 44.3636L44.1922 42.3186C44.3671 42.0839 44.5629 41.8656 44.7773 41.6664C46.0593 40.4753 47.8834 40.0928 49.6018 40.4229C51.8435 40.8536 54.8348 41.1003 56.0762 39.7373C58.1052 37.5091 57.9174 36.7694 58.4736 35.0947C59.0732 33.2896 59.9692 29.7115 60.8721 28.0391C61.6565 26.5862 62.2471 25.8169 63.4551 24.6963C64.3561 23.8606 64.1454 22.3306 62.927 22.1701C62.2192 22.0768 61.4934 22.032 60.8721 22.0967C59.6903 22.2197 57.9206 22.3722 56.0762 22.8398C53.2639 23.5528 53.6777 23.1808 50.542 24.6963C48.6689 25.6015 47.0591 26.418 45.7461 28.0391C44.6874 29.3461 44.2983 29.9857 43.7168 31.5674C43.1469 33.1178 43.1524 33.8226 42.9795 35.4668C42.902 36.2045 43.1019 37.3175 43.2368 37.9509C43.3035 38.2638 43.2566 38.5919 43.0928 38.8667C42.556 39.7673 41.2045 39.5989 40.9051 38.5942L40.0886 35.8547C40.0485 35.7201 39.9969 35.5891 39.9344 35.4632L38.7944 33.1684C37.8711 31.3096 38.4218 29.161 39.1477 27.2166C39.208 27.0553 39.2566 26.8954 39.29 26.7393C39.6736 24.9496 39.1473 23.7983 38.3906 22.1455L38.3682 22.0967C37.5536 20.3174 36.6172 19.5739 35.2324 18.1973C33.623 16.5973 32.6135 15.746 30.6201 14.6699C28.7327 13.6511 27.4975 13.4612 25.4551 12.8125C23.672 12.2461 22.7005 11.7356 20.8438 11.5127ZM67.5391 5.31055C66.5207 5.3178 65.7003 6.15449 65.707 7.17969C65.708 7.29728 65.5972 7.3839 65.48 7.37373C65.4338 7.36972 65.3871 7.36784 65.3398 7.36816L59.2861 7.40918C58.8137 7.41293 58.1382 8.0147 57.7215 8.59947C57.4235 9.01784 57.2296 9.50649 56.9593 9.94329L52.5813 17.0169C52.3106 17.4542 52.0436 17.949 52.1828 18.4441C52.328 18.9607 52.7475 19.382 53.3096 19.4971L53.876 19.6133C54.3398 19.7082 54.7977 19.5729 55.1317 19.2847C55.6115 18.8706 55.794 18.2035 56.1476 17.6776L59.2861 13.0107L59.7372 12.3124C60.0002 11.9051 60.1753 11.4103 60.5699 11.1286C60.9309 10.8709 61.4357 10.7373 61.8486 10.7344L65.3623 10.71C65.5509 10.7087 65.732 10.8449 65.7335 11.0335L65.7354 11.2646C65.7423 12.29 66.5733 13.1151 67.5918 13.1084L81.9795 13.0107C82.9981 13.0037 83.8182 12.1669 83.8115 11.1416L83.7842 7.05664C83.7772 6.0312 82.9454 5.20495 81.9268 5.21191L67.5391 5.31055Z" fill="currentColor"/>
</svg>
