<svg width="37" height="37" viewBox="0 0 37 37" xmlns="http://www.w3.org/2000/svg">
<mask id="mask0_2272_988" style="mask-type:alpha" maskUnits="userSpaceOnUse" x="0" y="0" width="37" height="37">
<rect x="0.0780029" y="0.638672" width="36.2918" height="36.2918" fill="#D9D9D9"/>
</mask>
<g mask="url(#mask0_2272_988)">
<path d="M8.92422 26.4967C10.2096 25.5138 11.6461 24.7388 13.2339 24.1717C14.8216 23.6047 16.485 23.3211 18.224 23.3211C19.963 23.3211 21.6263 23.6047 23.2141 24.1717C24.8019 24.7388 26.2384 25.5138 27.5237 26.4967C28.4058 25.4633 29.0926 24.2914 29.5841 22.9809C30.0755 21.6704 30.3212 20.2716 30.3212 18.7847C30.3212 15.4327 29.143 12.5785 26.7866 10.2221C24.4301 7.86562 21.5759 6.6874 18.224 6.6874C14.872 6.6874 12.0178 7.86562 9.6614 10.2221C7.30495 12.5785 6.12673 15.4327 6.12673 18.7847C6.12673 20.2716 6.37246 21.6704 6.86391 22.9809C7.35536 24.2914 8.04213 25.4633 8.92422 26.4967ZM18.224 20.2968C16.737 20.2968 15.4832 19.7865 14.4625 18.7658C13.4418 17.745 12.9314 16.4912 12.9314 15.0043C12.9314 13.5173 13.4418 12.2635 14.4625 11.2428C15.4832 10.2221 16.737 9.71171 18.224 9.71171C19.7109 9.71171 20.9648 10.2221 21.9855 11.2428C23.0062 12.2635 23.5165 13.5173 23.5165 15.0043C23.5165 16.4912 23.0062 17.745 21.9855 18.7658C20.9648 19.7865 19.7109 20.2968 18.224 20.2968ZM18.224 33.9062C16.1322 33.9062 14.1664 33.5093 12.3266 32.7154C10.4868 31.9215 8.88642 30.8441 7.52548 29.4832C6.16453 28.1222 5.08712 26.5219 4.29324 24.6821C3.49936 22.8423 3.10242 20.8765 3.10242 18.7847C3.10242 16.6928 3.49936 14.727 4.29324 12.8872C5.08712 11.0475 6.16453 9.44709 7.52548 8.08614C8.88642 6.7252 10.4868 5.64779 12.3266 4.85391C14.1664 4.06003 16.1322 3.66309 18.224 3.66309C20.3158 3.66309 22.2816 4.06003 24.1214 4.85391C25.9612 5.64779 27.5616 6.7252 28.9225 8.08614C30.2834 9.44709 31.3608 11.0475 32.1547 12.8872C32.9486 14.727 33.3456 16.6928 33.3456 18.7847C33.3456 20.8765 32.9486 22.8423 32.1547 24.6821C31.3608 26.5219 30.2834 28.1222 28.9225 29.4832C27.5616 30.8441 25.9612 31.9215 24.1214 32.7154C22.2816 33.5093 20.3158 33.9062 18.224 33.9062Z" fill="#348B58"/>
</g>
</svg>
