<svg width="23" height="22" viewBox="0 0 23 22" xmlns="http://www.w3.org/2000/svg">
<mask id="mask0_2350_3092" style="mask-type:alpha" maskUnits="userSpaceOnUse" x="0" y="0" width="23" height="22">
<rect x="0.803101" y="0.162598" width="21.675" height="21.675"/>
</mask>
<g mask="url(#mask0_2350_3092)">
<path d="M10.337 20.4656C9.88796 20.4656 9.50187 20.3195 9.1787 20.0273C8.85539 19.735 8.66362 19.372 8.60341 18.9382L8.40021 17.4351C8.27257 17.3855 8.14982 17.325 8.03196 17.2536C7.91425 17.1823 7.79812 17.1076 7.68358 17.0296L6.29638 17.6167C5.88606 17.7908 5.47152 17.8081 5.05277 17.6684C4.63387 17.5285 4.31055 17.2643 4.08281 16.8757L2.77915 14.5774C2.55141 14.1972 2.48481 13.7923 2.57934 13.3627C2.67401 12.9331 2.89641 12.5819 3.24652 12.309L4.43029 11.4059C4.42382 11.3345 4.42058 11.2669 4.42058 11.2031V10.7976C4.42058 10.7338 4.42382 10.6662 4.43029 10.5949L3.24652 9.70461C2.88783 9.43172 2.66333 9.08047 2.57301 8.65089C2.4827 8.22115 2.55141 7.81196 2.77915 7.42331L4.08281 5.13795C4.31055 4.75774 4.63169 4.4956 5.04622 4.35156C5.46091 4.20766 5.87341 4.22271 6.28373 4.39671L7.70909 4.98374C7.82364 4.90592 7.93721 4.83345 8.0498 4.76632C8.16224 4.69918 8.27904 4.64078 8.40021 4.59111L8.60341 3.07544C8.66362 2.63306 8.85539 2.26571 9.1787 1.9734C9.50187 1.68124 9.88796 1.53516 10.337 1.53516H12.9443C13.3933 1.53516 13.7794 1.68124 14.1025 1.9734C14.4259 2.26571 14.6176 2.63306 14.6778 3.07544L14.881 4.59111C15.0087 4.64078 15.1314 4.69918 15.2493 4.76632C15.367 4.83345 15.4831 4.90592 15.5977 4.98374L16.9849 4.39671C17.3952 4.22271 17.8097 4.20766 18.2285 4.35156C18.6474 4.4956 18.9707 4.75774 19.1984 5.13795L20.5021 7.42331C20.7298 7.81196 20.7986 8.22115 20.7082 8.65089C20.6179 9.08047 20.3934 9.43172 20.0347 9.70461L18.8381 10.5949C18.8447 10.6662 18.848 10.7338 18.848 10.7976V11.0004C18.848 11.0717 18.8459 11.1393 18.8417 11.2031C18.8373 11.2669 18.8286 11.3345 18.8155 11.4059L20.0122 12.2961C20.3708 12.569 20.5953 12.9203 20.6857 13.3499C20.776 13.7796 20.7073 14.1888 20.4795 14.5774L19.1533 16.8757C18.9255 17.2559 18.6044 17.5179 18.1899 17.6618C17.7752 17.8059 17.3627 17.7908 16.9524 17.6167L15.5722 17.0296C15.4576 17.1076 15.344 17.1823 15.2315 17.2536C15.119 17.325 15.0022 17.3855 14.881 17.4351L14.6778 18.9382C14.6176 19.372 14.4259 19.735 14.1025 20.0273C13.7794 20.3195 13.3933 20.4656 12.9443 20.4656H10.337ZM11.6474 14.1613C12.5204 14.1613 13.2655 13.8527 13.8826 13.2356C14.4998 12.6185 14.8083 11.8734 14.8083 11.0004C14.8083 10.1273 14.4998 9.38227 13.8826 8.76513C13.2655 8.148 12.5204 7.83943 11.6474 7.83943C10.7679 7.83943 10.0212 8.148 9.40742 8.76513C8.79345 9.38227 8.48646 10.1273 8.48646 11.0004C8.48646 11.8734 8.79345 12.6185 9.40742 13.2356C10.0212 13.8527 10.7679 14.1613 11.6474 14.1613Z" />
</g>
</svg>
