<svg width="23" height="24" viewBox="0 0 23 24" fill="none" xmlns="http://www.w3.org/2000/svg">
<mask id="mask0_2272_1009" style="mask-type:alpha" maskUnits="userSpaceOnUse" x="0" y="0" width="23" height="24">
<rect x="0.0744019" y="0.946289" width="22.5089" height="22.5089" fill="#828282"/>
</mask>
<g mask="url(#mask0_2272_1009)">
<path d="M4.76374 21.5797C4.24791 21.5797 3.80633 21.396 3.439 21.0287C3.07167 20.6613 2.888 20.2197 2.888 19.7039V6.57374C2.888 6.05792 3.07167 5.61634 3.439 5.249C3.80633 4.88167 4.24791 4.698 4.76374 4.698H5.70161V3.76014C5.70161 3.49441 5.79149 3.27166 5.97125 3.0919C6.15101 2.91214 6.37375 2.82227 6.63948 2.82227C6.90521 2.82227 7.12795 2.91214 7.30771 3.0919C7.48747 3.27166 7.57735 3.49441 7.57735 3.76014V4.698H15.0803V3.76014C15.0803 3.49441 15.1702 3.27166 15.3499 3.0919C15.5297 2.91214 15.7524 2.82227 16.0182 2.82227C16.2839 2.82227 16.5067 2.91214 16.6864 3.0919C16.8662 3.27166 16.956 3.49441 16.956 3.76014V4.698H17.8939C18.4097 4.698 18.8513 4.88167 19.2187 5.249C19.586 5.61634 19.7697 6.05792 19.7697 6.57374V19.7039C19.7697 20.2197 19.586 20.6613 19.2187 21.0287C18.8513 21.396 18.4097 21.5797 17.8939 21.5797H4.76374ZM4.76374 19.7039H17.8939V10.3252H4.76374V19.7039ZM11.3288 14.0767C11.0631 14.0767 10.8404 13.9868 10.6606 13.8071C10.4808 13.6273 10.391 13.4046 10.391 13.1388C10.391 12.8731 10.4808 12.6504 10.6606 12.4706C10.8404 12.2908 11.0631 12.201 11.3288 12.201C11.5946 12.201 11.8173 12.2908 11.9971 12.4706C12.1768 12.6504 12.2667 12.8731 12.2667 13.1388C12.2667 13.4046 12.1768 13.6273 11.9971 13.8071C11.8173 13.9868 11.5946 14.0767 11.3288 14.0767ZM7.57735 14.0767C7.31162 14.0767 7.08888 13.9868 6.90912 13.8071C6.72936 13.6273 6.63948 13.4046 6.63948 13.1388C6.63948 12.8731 6.72936 12.6504 6.90912 12.4706C7.08888 12.2908 7.31162 12.201 7.57735 12.201C7.84308 12.201 8.06582 12.2908 8.24558 12.4706C8.42534 12.6504 8.51522 12.8731 8.51522 13.1388C8.51522 13.4046 8.42534 13.6273 8.24558 13.8071C8.06582 13.9868 7.84308 14.0767 7.57735 14.0767ZM15.0803 14.0767C14.8146 14.0767 14.5918 13.9868 14.4121 13.8071C14.2323 13.6273 14.1424 13.4046 14.1424 13.1388C14.1424 12.8731 14.2323 12.6504 14.4121 12.4706C14.5918 12.2908 14.8146 12.201 15.0803 12.201C15.346 12.201 15.5688 12.2908 15.7485 12.4706C15.9283 12.6504 16.0182 12.8731 16.0182 13.1388C16.0182 13.4046 15.9283 13.6273 15.7485 13.8071C15.5688 13.9868 15.346 14.0767 15.0803 14.0767ZM11.3288 17.8282C11.0631 17.8282 10.8404 17.7383 10.6606 17.5585C10.4808 17.3788 10.391 17.156 10.391 16.8903C10.391 16.6246 10.4808 16.4018 10.6606 16.2221C10.8404 16.0423 11.0631 15.9524 11.3288 15.9524C11.5946 15.9524 11.8173 16.0423 11.9971 16.2221C12.1768 16.4018 12.2667 16.6246 12.2667 16.8903C12.2667 17.156 12.1768 17.3788 11.9971 17.5585C11.8173 17.7383 11.5946 17.8282 11.3288 17.8282ZM7.57735 17.8282C7.31162 17.8282 7.08888 17.7383 6.90912 17.5585C6.72936 17.3788 6.63948 17.156 6.63948 16.8903C6.63948 16.6246 6.72936 16.4018 6.90912 16.2221C7.08888 16.0423 7.31162 15.9524 7.57735 15.9524C7.84308 15.9524 8.06582 16.0423 8.24558 16.2221C8.42534 16.4018 8.51522 16.6246 8.51522 16.8903C8.51522 17.156 8.42534 17.3788 8.24558 17.5585C8.06582 17.7383 7.84308 17.8282 7.57735 17.8282ZM15.0803 17.8282C14.8146 17.8282 14.5918 17.7383 14.4121 17.5585C14.2323 17.3788 14.1424 17.156 14.1424 16.8903C14.1424 16.6246 14.2323 16.4018 14.4121 16.2221C14.5918 16.0423 14.8146 15.9524 15.0803 15.9524C15.346 15.9524 15.5688 16.0423 15.7485 16.2221C15.9283 16.4018 16.0182 16.6246 16.0182 16.8903C16.0182 17.156 15.9283 17.3788 15.7485 17.5585C15.5688 17.7383 15.346 17.8282 15.0803 17.8282Z" fill="#525252"/>
</g>
</svg>
