<svg width="25" height="25" viewBox="0 0 25 25" xmlns="http://www.w3.org/2000/svg">
<path d="M22.1101 6.42C21.7001 6.2 20.8401 5.97 19.6701 6.79L18.2001 7.83C18.0901 4.72 16.7401 3.5 13.4601 3.5H7.46008C4.04008 3.5 2.71008 4.83 2.71008 8.25V16.25C2.71008 18.55 3.96008 21 7.46008 21H13.4601C16.7401 21 18.0901 19.78 18.2001 16.67L19.6701 17.71C20.2901 18.15 20.8301 18.29 21.2601 18.29C21.6301 18.29 21.9201 18.18 22.1101 18.08C22.5201 17.87 23.2101 17.3 23.2101 15.87V8.63C23.2101 7.2 22.5201 6.63 22.1101 6.42ZM11.9601 11.63C10.9301 11.63 10.0801 10.79 10.0801 9.75C10.0801 8.71 10.9301 7.87 11.9601 7.87C12.9901 7.87 13.8401 8.71 13.8401 9.75C13.8401 10.79 12.9901 11.63 11.9601 11.63Z" />
</svg>
