<svg width="30" height="30" viewBox="0 0 30 30" fill="none" xmlns="http://www.w3.org/2000/svg">
<path d="M15 17.1L19.35 21.45C19.625 21.725 19.975 21.8625 20.4 21.8625C20.825 21.8625 21.175 21.725 21.45 21.45C21.725 21.175 21.8625 20.825 21.8625 20.4C21.8625 19.975 21.725 19.625 21.45 19.35L17.1 15L21.45 10.65C21.725 10.375 21.8625 10.025 21.8625 9.6C21.8625 9.175 21.725 8.825 21.45 8.55C21.175 8.275 20.825 8.1375 20.4 8.1375C19.975 8.1375 19.625 8.275 19.35 8.55L15 12.9L10.65 8.55C10.375 8.275 10.025 8.1375 9.6 8.1375C9.175 8.1375 8.825 8.275 8.55 8.55C8.275 8.825 8.1375 9.175 8.1375 9.6C8.1375 10.025 8.275 10.375 8.55 10.65L12.9 15L8.55 19.35C8.275 19.625 8.1375 19.975 8.1375 20.4C8.1375 20.825 8.275 21.175 8.55 21.45C8.825 21.725 9.175 21.8625 9.6 21.8625C10.025 21.8625 10.375 21.725 10.65 21.45L15 17.1ZM15 30C12.925 30 10.975 29.6062 9.15 28.8187C7.325 28.0312 5.7375 26.9625 4.3875 25.6125C3.0375 24.2625 1.96875 22.675 1.18125 20.85C0.39375 19.025 0 17.075 0 15C0 12.925 0.39375 10.975 1.18125 9.15C1.96875 7.325 3.0375 5.7375 4.3875 4.3875C5.7375 3.0375 7.325 1.96875 9.15 1.18125C10.975 0.39375 12.925 0 15 0C17.075 0 19.025 0.39375 20.85 1.18125C22.675 1.96875 24.2625 3.0375 25.6125 4.3875C26.9625 5.7375 28.0312 7.325 28.8187 9.15C29.6062 10.975 30 12.925 30 15C30 17.075 29.6062 19.025 28.8187 20.85C28.0312 22.675 26.9625 24.2625 25.6125 25.6125C24.2625 26.9625 22.675 28.0312 20.85 28.8187C19.025 29.6062 17.075 30 15 30Z" fill="#EB5757"/>
</svg>
