<svg width="25" height="24" viewBox="0 0 25 24" xmlns="http://www.w3.org/2000/svg">
<path d="M4.28931 6.18624H20.2893M10.2893 16.7745V10.4215M14.2893 16.7745V10.4215M16.2893 21.0098H8.28931C7.18474 21.0098 6.28931 20.0617 6.28931 18.8921V7.24506C6.28931 6.66029 6.73702 6.18624 7.28931 6.18624H17.2893C17.8416 6.18624 18.2893 6.66029 18.2893 7.24506V18.8921C18.2893 20.0617 17.3939 21.0098 16.2893 21.0098ZM10.2893 6.18624H14.2893C14.8416 6.18624 15.2893 5.71218 15.2893 5.12741V4.06859C15.2893 3.48382 14.8416 3.00977 14.2893 3.00977H10.2893C9.73702 3.00977 9.28931 3.48382 9.28931 4.06859V5.12741C9.28931 5.71218 9.73702 6.18624 10.2893 6.18624Z" stroke="#EF161B" stroke-width="2" stroke-linecap="round" stroke-linejoin="round" fill="none"/>
</svg>
