<svg width="22" height="21" viewBox="0 0 22 21" xmlns="http://www.w3.org/2000/svg">
<path d="M17.7814 5.11875L12.5839 2.1175C11.7351 1.6275 10.6851 1.6275 9.82764 2.1175L4.63889 5.11875C3.79014 5.60875 3.26514 6.51875 3.26514 7.5075V13.4925C3.26514 14.4725 3.79014 15.3825 4.63889 15.8812L9.83639 18.8825C10.6851 19.3725 11.7351 19.3725 12.5926 18.8825L17.7901 15.8812C18.6389 15.3912 19.1639 14.4812 19.1639 13.4925V7.5075C19.1551 6.51875 18.6301 5.6175 17.7814 5.11875ZM10.5539 6.78125C10.5539 6.4225 10.8514 6.125 11.2101 6.125C11.5689 6.125 11.8664 6.4225 11.8664 6.78125V11.375C11.8664 11.7338 11.5689 12.0312 11.2101 12.0312C10.8514 12.0312 10.5539 11.7338 10.5539 11.375V6.78125ZM12.0151 14.5512C11.9714 14.6562 11.9101 14.7525 11.8314 14.84C11.6651 15.0062 11.4464 15.0938 11.2101 15.0938C11.0964 15.0938 10.9826 15.0675 10.8776 15.0238C10.7639 14.98 10.6764 14.9187 10.5889 14.84C10.5101 14.7525 10.4489 14.6562 10.3964 14.5512C10.3526 14.4462 10.3351 14.3325 10.3351 14.2188C10.3351 13.9913 10.4226 13.7638 10.5889 13.5975C10.6764 13.5188 10.7639 13.4575 10.8776 13.4137C11.2014 13.2738 11.5864 13.3525 11.8314 13.5975C11.9101 13.685 11.9714 13.7725 12.0151 13.8862C12.0589 13.9913 12.0851 14.105 12.0851 14.2188C12.0851 14.3325 12.0589 14.4462 12.0151 14.5512Z" />
</svg>
