<svg width="25" height="25" viewBox="0 0 25 25" fill="none" xmlns="http://www.w3.org/2000/svg">
<path d="M12.4807 18.5288C12.8212 18.5288 13.1067 18.4137 13.337 18.1833C13.5674 17.9529 13.6826 17.6675 13.6826 17.3269C13.6826 16.9864 13.5674 16.7009 13.337 16.4705C13.1067 16.2402 12.8212 16.125 12.4807 16.125C12.1401 16.125 11.8547 16.2402 11.6243 16.4705C11.3939 16.7009 11.2787 16.9864 11.2787 17.3269C11.2787 17.6675 11.3939 17.9529 11.6243 18.1833C11.8547 18.4137 12.1401 18.5288 12.4807 18.5288ZM12.4807 13.7212C12.8212 13.7212 13.1067 13.606 13.337 13.3756C13.5674 13.1452 13.6826 12.8598 13.6826 12.5192V7.71154C13.6826 7.37099 13.5674 7.08554 13.337 6.85517C13.1067 6.6248 12.8212 6.50961 12.4807 6.50961C12.1401 6.50961 11.8547 6.6248 11.6243 6.85517C11.3939 7.08554 11.2787 7.37099 11.2787 7.71154V12.5192C11.2787 12.8598 11.3939 13.1452 11.6243 13.3756C11.8547 13.606 12.1401 13.7212 12.4807 13.7212ZM12.4807 24.5385C10.818 24.5385 9.25549 24.2229 7.79315 23.5919C6.33082 22.9609 5.05878 22.1046 3.97705 21.0228C2.89532 19.9411 2.03895 18.6691 1.40794 17.2067C0.77693 15.7444 0.461426 14.1819 0.461426 12.5192C0.461426 10.8566 0.77693 9.29407 1.40794 7.83173C2.03895 6.36939 2.89532 5.09735 3.97705 4.01562C5.05878 2.93389 6.33082 2.07752 7.79315 1.44651C9.25549 0.815505 10.818 0.5 12.4807 0.5C14.1433 0.5 15.7058 0.815505 17.1682 1.44651C18.6305 2.07752 19.9025 2.93389 20.9843 4.01562C22.066 5.09735 22.9224 6.36939 23.5534 7.83173C24.1844 9.29407 24.4999 10.8566 24.4999 12.5192C24.4999 14.1819 24.1844 15.7444 23.5534 17.2067C22.9224 18.6691 22.066 19.9411 20.9843 21.0228C19.9025 22.1046 18.6305 22.9609 17.1682 23.5919C15.7058 24.2229 14.1433 24.5385 12.4807 24.5385Z" fill="#F2994A"/>
</svg>
