<svg width="22" height="22" viewBox="0 0 22 22" fill="none" xmlns="http://www.w3.org/2000/svg">
<path d="M22 11C22 4.92487 17.0751 0 11 0C4.92487 0 0 4.92487 0 11C0 15.0324 2.16974 18.5579 5.4054 20.4729C7.27811 21.5812 9.28125 19.8994 9.28125 17.7233V15.5762C9.28125 14.8049 8.65602 14.1797 7.88477 14.1797C7.11351 14.1797 6.48828 13.5545 6.48828 12.7832V12.3965C6.48828 11.6252 7.11351 11 7.88477 11C8.65602 11 9.28125 10.3748 9.28125 9.60351V8.57656C9.28125 5.81968 10.9235 4.29687 13.4361 4.29687C13.8595 4.29687 14.2898 4.32347 14.6697 4.35794C15.3823 4.42261 15.8984 5.03501 15.8984 5.75056V5.83166C15.8984 6.59773 15.2774 7.21875 14.5113 7.21875C13.1449 7.21875 12.7188 8.06667 12.7188 8.93658V9.59091C12.7188 10.3691 13.3496 11 14.1278 11C14.9912 11 15.6515 11.7693 15.5206 12.6227L15.4613 13.0095C15.3581 13.6827 14.779 14.1797 14.098 14.1797C13.3363 14.1797 12.7188 14.7972 12.7188 15.5589V17.7233C12.7188 19.8994 14.7219 21.5812 16.5946 20.4729C19.8303 18.5579 22 15.0324 22 11Z" fill="#1877F2"/>
<path d="M11 0.5C16.799 0.5 21.5 5.20101 21.5 11C21.5 14.8485 19.4297 18.2142 16.3398 20.043C15.5939 20.4844 14.8432 20.3741 14.2549 19.9307C13.6513 19.4756 13.2189 18.6619 13.2188 17.7236V15.5586C13.2189 15.0733 13.6123 14.6799 14.0977 14.6797C15.0255 14.6797 15.8144 14.0021 15.9551 13.085L16.0146 12.6982C16.1918 11.5422 15.2975 10.5001 14.1279 10.5C13.6259 10.5 13.2188 10.0929 13.2188 9.59082V8.93652C13.2188 8.57427 13.308 8.27759 13.4805 8.07812C13.6413 7.89221 13.9371 7.71875 14.5117 7.71875C15.5536 7.71855 16.3982 6.87395 16.3984 5.83203V5.75098C16.3984 4.79876 15.7063 3.95034 14.7148 3.86035C14.3254 3.82501 13.8794 3.79689 13.4365 3.79688C12.0792 3.79688 10.9011 4.21037 10.0625 5.0498C9.22359 5.88966 8.78133 7.09828 8.78125 8.57617V9.60352C8.78125 10.0986 8.37988 10.5 7.88477 10.5C6.83737 10.5 5.98828 11.3491 5.98828 12.3965V12.7832C5.98828 13.8306 6.83737 14.6797 7.88477 14.6797C8.37988 14.6797 8.78125 15.0811 8.78125 15.5762V17.7236C8.78115 18.6619 8.34867 19.4756 7.74512 19.9307C7.15683 20.3741 6.40614 20.4844 5.66016 20.043C2.57026 18.2142 0.5 14.8485 0.5 11C0.5 5.20101 5.20101 0.5 11 0.5Z" stroke="#1877F2" stroke-opacity="0.466667"/>
<path d="M14.098 14.1797C14.779 14.1797 15.3581 13.6827 15.4613 13.0095L15.5206 12.6227C15.6515 11.7693 14.9912 11 14.1278 11C13.3496 11 12.7188 10.3691 12.7188 9.59091V8.93658C12.7188 8.06667 13.1449 7.21875 14.5113 7.21875C15.2774 7.21875 15.8984 6.59773 15.8984 5.83166V5.75056C15.8984 5.03501 15.3823 4.42261 14.6697 4.35794C14.2898 4.32347 13.8595 4.29688 13.4361 4.29688C10.9235 4.29688 9.28125 5.81968 9.28125 8.57656V9.60352C9.28125 10.3748 8.65602 11 7.88477 11C7.11351 11 6.48828 11.6252 6.48828 12.3965V12.7832C6.48828 13.5545 7.11351 14.1797 7.88477 14.1797C8.65602 14.1797 9.28125 14.8049 9.28125 15.5762V20.1407C9.28125 21.1341 10.0066 22 11 22C11.9934 22 12.7188 21.1341 12.7188 20.1407V15.5589C12.7188 14.7972 13.3363 14.1797 14.098 14.1797Z" fill="white"/>
</svg>
