<svg width="23" height="23" viewBox="0 0 23 23" fill="none" xmlns="http://www.w3.org/2000/svg">
<mask id="mask0_2439_999" style="mask-type:alpha" maskUnits="userSpaceOnUse" x="0" y="0" width="23" height="23">
<rect width="22.0415" height="22.0415" fill="#828282"/>
</mask>
<g mask="url(#mask0_2439_999)">
<path d="M7.34717 17.84L5.28078 19.9064C5.0971 20.09 4.88281 20.178 4.6379 20.1704C4.39299 20.1627 4.1787 20.0671 3.99502 19.8834C3.82665 19.6997 3.73864 19.4854 3.73098 19.2405C3.72333 18.9956 3.81134 18.7813 3.99502 18.5976L6.06141 16.5312H4.91342C4.65321 16.5312 4.43509 16.4432 4.25906 16.2672C4.08304 16.0912 3.99502 15.8731 3.99502 15.6129C3.99502 15.3526 4.08304 15.1345 4.25906 14.9585C4.43509 14.7825 4.65321 14.6945 4.91342 14.6945H8.26556C8.52578 14.6945 8.7439 14.7825 8.91992 14.9585C9.09595 15.1345 9.18396 15.3526 9.18396 15.6129V18.965C9.18396 19.2252 9.09595 19.4433 8.91992 19.6194C8.7439 19.7954 8.52578 19.8834 8.26556 19.8834C8.00535 19.8834 7.78723 19.7954 7.61121 19.6194C7.43518 19.4433 7.34717 19.2252 7.34717 18.965V17.84ZM11.9391 20.2048C11.6789 20.2048 11.4608 20.1168 11.2848 19.9408C11.1088 19.7648 11.0208 19.5466 11.0208 19.2864V15.6129C11.0208 14.8475 10.7529 14.197 10.2172 13.6613C9.68142 13.1255 9.03089 12.8577 8.26556 12.8577H4.59198C4.33177 12.8577 4.11365 12.7697 3.93762 12.5936C3.7616 12.4176 3.67358 12.1995 3.67358 11.9393V3.67371C3.67358 3.16859 3.85344 2.73618 4.21314 2.37647C4.57285 2.01677 5.00526 1.83691 5.51038 1.83691H12.8575L18.3679 7.34729V18.368C18.3679 18.8732 18.1881 19.3056 17.8284 19.6653C17.4687 20.025 17.0362 20.2048 16.5311 20.2048H11.9391ZM11.9391 8.26569H16.5311L11.9391 3.67371V8.26569Z" fill="white"/>
</g>
</svg>
