<svg width="19" height="20" viewBox="0 0 19 20" fill="none" xmlns="http://www.w3.org/2000/svg">
<path d="M14.4993 8.1196C14.1693 8.03961 13.8193 7.99961 13.4593 7.99961C10.8394 7.99961 8.70954 10.1295 8.70954 12.7494C8.70954 13.6393 8.95952 14.4793 9.3995 15.1993C9.76948 15.8192 10.2795 16.3492 10.8994 16.7292C11.6394 17.2192 12.5193 17.4991 13.4593 17.4991C15.1992 17.4991 16.7091 16.5692 17.5291 15.1993C17.9691 14.4793 18.2091 13.6393 18.2091 12.7494C18.2091 10.4895 16.6291 8.58958 14.4993 8.1196ZM15.8292 12.1294L13.2893 14.4693C13.1493 14.5993 12.9593 14.6693 12.7793 14.6693C12.5893 14.6693 12.3994 14.5993 12.2494 14.4493L11.0794 13.2794C10.7894 12.9894 10.7894 12.5094 11.0794 12.2194C11.3694 11.9294 11.8494 11.9294 12.1394 12.2194L12.7993 12.8794L14.8092 11.0295C15.1192 10.7495 15.5892 10.7695 15.8692 11.0695C16.1492 11.3794 16.1292 11.8494 15.8292 12.1294Z"/>
<path d="M17.1592 2.0199V4.23979C17.1592 5.04975 16.6592 6.0597 16.1592 6.56968L15.9792 6.72967C15.8392 6.85966 15.6292 6.88966 15.4492 6.82967C15.2493 6.75967 15.0493 6.70967 14.8493 6.65967C14.4093 6.54968 13.9393 6.49968 13.4593 6.49968C10.0095 6.49968 7.20965 9.29955 7.20965 12.7494C7.20965 13.8893 7.51963 15.0093 8.1096 15.9692C8.60958 16.8092 9.30954 17.5091 10.0695 17.9791C10.2995 18.1291 10.3895 18.4491 10.1895 18.6291C10.1195 18.6891 10.0495 18.7391 9.97951 18.7891L8.57958 19.699C7.27964 20.509 5.48973 19.599 5.48973 17.9791V12.6294C5.48973 11.9194 5.08975 11.0095 4.68977 10.5095L0.899956 6.46968C0.399981 5.95971 0 5.04975 0 4.44978V2.1199C0 0.909955 0.899956 0 1.9899 0H15.1693C16.2592 0 17.1592 0.909956 17.1592 2.0199Z"/>
</svg>
