<svg width="20" height="20" viewBox="0 0 20 20" fill="none" xmlns="http://www.w3.org/2000/svg">
<path d="M19.9895 10.1868C19.9895 8.98293 18.9243 8.14941 17.7204 8.14941H12.0484C11.0271 8.14941 10.1992 8.97731 10.1992 9.99857C10.1992 11.0198 11.0271 11.8477 12.0484 11.8477H12.9596C14.4791 11.8477 15.606 13.2613 14.5659 14.3691C14.3383 14.6115 14.0766 14.8422 13.7781 15.0509C13.7506 15.0702 13.7317 15.0999 13.7265 15.1331C13.7197 15.1773 13.7377 15.2216 13.7733 15.2486L16.6773 17.447C16.7202 17.4795 16.7713 17.4994 16.8248 17.5047C16.9062 17.5126 16.9875 17.486 17.0474 17.4303C18.9153 15.694 19.9895 13.1707 19.9895 10.1868Z" fill="#4285F4"/>
<path d="M10.1993 19.9312C11.9461 19.9312 13.515 19.5746 14.8598 18.9238C16.0425 18.3514 15.9829 16.7832 14.9353 15.9901C14.2179 15.447 13.2415 15.4593 12.3879 15.7443C11.7606 15.9537 11.0348 16.0777 10.1993 16.0777C7.53348 16.0777 5.26629 14.3792 4.42636 12.0193C4.40912 11.9708 4.36163 11.9395 4.31038 11.9438C4.28922 11.9455 4.269 11.9532 4.25207 11.9661L1.16807 14.2984C1.14324 14.3172 1.12432 14.3427 1.11356 14.3719C1.09783 14.4146 1.1007 14.4621 1.12185 14.5024C2.81077 17.7234 6.23658 19.9312 10.1993 19.9312Z" fill="#34A853"/>
<path d="M3.14373 12.8846C3.8912 12.3192 4.14584 11.3368 4.07434 10.4024C4.06328 10.2579 4.05759 10.1121 4.05759 9.96534C4.05759 9.29173 4.17753 8.6395 4.37469 8.02949C4.38221 8.00623 4.38561 7.98184 4.38455 7.95741C4.38195 7.89716 4.35265 7.84119 4.3046 7.80473L1.25134 5.48761C1.21548 5.46039 1.1675 5.45523 1.12667 5.47421C1.1021 5.48563 1.08203 5.50491 1.06979 5.52909C0.390327 6.87061 0.000976562 8.37451 0.000976562 9.96534C0.000976562 10.6696 0.0772745 11.3567 0.221262 12.0203C0.506284 13.3339 2.07167 13.6954 3.14373 12.8846Z" fill="#FBBC05"/>
<path d="M10.1993 3.85336C11.1485 3.85336 11.9447 4.05199 12.5959 4.33461C13.5519 4.74943 14.7283 4.77825 15.4823 4.0589C16.3135 3.26578 16.303 1.91254 15.3094 1.33567C13.8487 0.487619 12.1361 0 10.1993 0C6.78046 0 3.76128 1.64325 1.91233 4.16277C1.37687 4.89243 1.61478 5.89127 2.33572 6.43842C3.34632 7.20541 4.83909 6.73283 5.70533 5.8059C6.82644 4.60625 8.42452 3.85336 10.1993 3.85336Z" fill="#EB4335"/>
</svg>
