<svg width="23" height="22" viewBox="0 0 23 22" xmlns="http://www.w3.org/2000/svg">
<mask id="mask0_2286_2682" style="mask-type:alpha" maskUnits="userSpaceOnUse" x="0" y="-1" width="23" height="24">
<rect x="0.0289307" y="-0.00390625" width="22.0077" height="22.0077" fill="#5c646fff"/>
</mask>
<g mask="url(#mask0_2286_2682)">
<path d="M3.25635 17.2636V9.24385C3.25635 8.85841 3.34079 8.49474 3.50967 8.15286C3.67839 7.81098 3.91627 7.5258 4.22331 7.29731L9.56957 3.28733C10.0028 2.95646 10.4906 2.79102 11.0328 2.79102C11.5751 2.79102 12.0629 2.95646 12.4961 3.28733L17.8424 7.29731C18.1494 7.5258 18.3873 7.81098 18.556 8.15286C18.7249 8.49474 18.8093 8.85841 18.8093 9.24385V17.2636C18.8093 17.9406 18.5736 18.5149 18.1021 18.9864C17.6306 19.4578 17.0564 19.6936 16.3793 19.6936H14.1854C13.848 19.6936 13.5611 19.5755 13.3249 19.3392C13.0886 19.1029 12.9704 18.816 12.9704 18.4786V13.9455C12.9704 13.6079 12.8524 13.3209 12.6163 13.0846C12.38 12.8485 12.093 12.7305 11.7554 12.7305H10.3103C9.97266 12.7305 9.68572 12.8485 9.44944 13.0846C9.21332 13.3209 9.09525 13.6079 9.09525 13.9455V18.4786C9.09525 18.816 8.97712 19.1029 8.74084 19.3392C8.50456 19.5755 8.2177 19.6936 7.88025 19.6936H5.68636C5.00932 19.6936 4.43506 19.4578 3.96357 18.9864C3.49209 18.5149 3.25635 17.9406 3.25635 17.2636Z" />
</g>
</svg>
