<svg width="26" height="26" viewBox="0 0 26 26" xmlns="http://www.w3.org/2000/svg">
<mask id="mask0_2286_2705" style="mask-type:alpha" maskUnits="userSpaceOnUse" x="0" y="0" width="26" height="26">
<rect width="26" height="26" fill="black"/>
</mask>
<g mask="url(#mask0_2286_2705)">
<path d="M5.24825 21.1037C4.84959 21.1037 4.51068 20.9642 4.23154 20.685C3.95241 20.4059 3.81284 20.067 3.81284 19.6683C3.81284 19.2695 3.95241 18.9305 4.23154 18.6514C4.51068 18.3724 4.84959 18.2329 5.24825 18.2329H5.79588V11.1701C5.79588 9.5388 6.27534 8.07702 7.23427 6.78479C8.1932 5.49273 9.4561 4.6508 11.023 4.259V3.62308C11.023 3.06968 11.2141 2.60186 11.5963 2.21962C11.9787 1.8372 12.4466 1.646 13 1.646C13.5534 1.646 14.0214 1.8372 14.4038 2.21962C14.786 2.60186 14.9771 3.06968 14.9771 3.62308V4.259C16.5543 4.6508 17.8198 5.4902 18.7737 6.7772C19.7274 8.0642 20.2042 9.52851 20.2042 11.1701V18.2329H20.7518C21.1505 18.2329 21.4894 18.3724 21.7685 18.6514C22.0477 18.9305 22.1873 19.2695 22.1873 19.6683C22.1873 20.067 22.0477 20.4059 21.7685 20.685C21.4894 20.9642 21.1505 21.1037 20.7518 21.1037H5.24825ZM13.0155 24.5222C12.3686 24.5222 11.8151 24.2947 11.355 23.8397C10.8949 23.3847 10.6649 22.8338 10.6649 22.1871H15.3503C15.3503 22.8338 15.1229 23.3847 14.6681 23.8397C14.2131 24.2947 13.6622 24.5222 13.0155 24.5222Z" fill="white"/>
</g>
</svg>
