<svg width="20" height="24" viewBox="0 0 20 24" xmlns="http://www.w3.org/2000/svg">
<path d="M13.0487 2.20999C12.7145 1.79999 12.1357 2.07999 12.1357 2.64999V6.13999C12.1357 7.59999 13.1465 8.80999 14.3773 8.80999C15.1516 8.81999 16.2276 8.81999 17.1487 8.81999C17.6133 8.81999 17.8578 8.14999 17.5318 7.74999C16.358 6.29999 14.255 3.68999 13.0487 2.20999Z" />
<path d="M16.8796 10.19H14.5239C12.5921 10.19 11.019 8.26 11.019 5.89V3C11.019 2.45 10.6522 2 10.2039 2H6.7478C4.23726 2 2.20764 4 2.20764 7.57V16.43C2.20764 20 4.23726 22 6.7478 22H13.1546C15.6651 22 17.6947 20 17.6947 16.43V11.19C17.6947 10.64 17.3279 10.19 16.8796 10.19ZM9.54362 17.75H6.28319C5.94899 17.75 5.67186 17.41 5.67186 17C5.67186 16.59 5.94899 16.25 6.28319 16.25H9.54362C9.87782 16.25 10.155 16.59 10.155 17C10.155 17.41 9.87782 17.75 9.54362 17.75ZM11.1738 13.75H6.28319C5.94899 13.75 5.67186 13.41 5.67186 13C5.67186 12.59 5.94899 12.25 6.28319 12.25H11.1738C11.508 12.25 11.7852 12.59 11.7852 13C11.7852 13.41 11.508 13.75 11.1738 13.75Z" />
</svg>
