<svg width="22" height="22" viewBox="0 0 22 22" fill="none" xmlns="http://www.w3.org/2000/svg">
<path d="M19.4975 8.41462C19.2317 7.99295 18.9475 7.59879 18.6542 7.23212C18.315 6.80129 17.6733 6.76462 17.2883 7.14962L14.5383 9.89962C14.74 10.5046 14.7767 11.2013 14.5933 11.9255C14.2725 13.218 13.2275 14.263 11.935 14.5838C11.2108 14.7671 10.5142 14.7305 9.90916 14.5288C9.90916 14.5288 8.59833 15.8396 7.65416 16.7838C7.19583 17.2421 7.34249 18.0488 7.95666 18.2871C8.93749 18.663 9.95499 18.8555 11 18.8555C12.6317 18.8555 14.2175 18.3788 15.6658 17.4896C17.1417 16.573 18.4708 15.2255 19.5433 13.5113C20.4142 12.1271 20.3683 9.79879 19.4975 8.41462Z" fill="#B7B7B7"/>
<path d="M12.8515 9.14842L9.14817 12.8518C8.68067 12.3751 8.37817 11.7151 8.37817 11.0001C8.37817 9.56092 9.55151 8.37842 10.9998 8.37842C11.7148 8.37842 12.3748 8.68092 12.8515 9.14842Z" fill="#B7B7B7"/>
<path d="M16.7291 5.2712L13.6216 8.3787C12.9524 7.70036 12.0266 7.29703 10.9999 7.29703C8.94658 7.29703 7.29659 8.9562 7.29659 11.0004C7.29659 12.027 7.70909 12.9529 8.37825 13.622L5.27992 16.7295H5.27075C4.25325 15.9045 3.31825 14.8504 2.52075 13.6037C1.60409 12.1645 1.60409 9.82703 2.52075 8.38786C3.58409 6.71953 4.88575 5.4087 6.33408 4.51036C7.78242 3.63036 9.36825 3.14453 10.9999 3.14453C13.0441 3.14453 15.0241 3.8962 16.7291 5.2712Z" fill="#B7B7B7"/>
<path d="M13.6217 11.0001C13.6217 12.4392 12.4484 13.6217 11.0001 13.6217C10.9451 13.6217 10.8992 13.6217 10.8442 13.6034L13.6034 10.8442C13.6217 10.8992 13.6217 10.9451 13.6217 11.0001Z" fill="#B7B7B7"/>
<path d="M19.9558 2.04414C19.6808 1.76914 19.2316 1.76914 18.9566 2.04414L2.04414 18.9658C1.76914 19.2408 1.76914 19.69 2.04414 19.965C2.18164 20.0933 2.35581 20.1666 2.53914 20.1666C2.72247 20.1666 2.89664 20.0933 3.03414 19.9558L19.9558 3.03414C20.24 2.75914 20.24 2.31914 19.9558 2.04414Z" fill="#B7B7B7"/>
</svg>
