<svg width="24" height="24" viewBox="0 0 24 24" fill="none" xmlns="http://www.w3.org/2000/svg">
<path d="M22.25 9.15018C19.94 5.52017 16.56 3.43018 13 3.43018C11.22 3.43018 9.49 3.95018 7.91 4.92018C6.33 5.90018 4.91 7.33017 3.75 9.15018C2.75 10.7202 2.75 13.2702 3.75 14.8402C6.06 18.4802 9.44 20.5602 13 20.5602C14.78 20.5602 16.51 20.0402 18.09 19.0702C19.67 18.0902 21.09 16.6602 22.25 14.8402C23.25 13.2802 23.25 10.7202 22.25 9.15018ZM13 16.0402C10.76 16.0402 8.96 14.2302 8.96 12.0002C8.96 9.77018 10.76 7.96018 13 7.96018C15.24 7.96018 17.04 9.77018 17.04 12.0002C17.04 14.2302 15.24 16.0402 13 16.0402Z" fill="#525252"/>
<path d="M12.9999 9.14014C11.4299 9.14014 10.1499 10.4201 10.1499 12.0001C10.1499 13.5701 11.4299 14.8501 12.9999 14.8501C14.5699 14.8501 15.8599 13.5701 15.8599 12.0001C15.8599 10.4301 14.5699 9.14014 12.9999 9.14014Z" fill="#525252"/>
</svg>
