<svg width="30" height="30" viewBox="0 0 30 30" fill="none" xmlns="http://www.w3.org/2000/svg">
<mask id="mask0_2350_3081" style="mask-type:alpha" maskUnits="userSpaceOnUse" x="0" y="0" width="30" height="30">
<rect width="30" height="30" fill="#EF4229"/>
</mask>
<g mask="url(#mask0_2350_3081)">
<path d="M3.60069 26.5504C3.28902 26.5504 3.00954 26.4736 2.76225 26.32C2.51475 26.1667 2.32225 25.9645 2.18475 25.7135C2.04537 25.467 1.97048 25.1985 1.96006 24.9079C1.94964 24.6174 2.02454 24.3339 2.18475 24.0572L13.5532 4.37504C13.7134 4.09608 13.9255 3.88983 14.1894 3.75629C14.4532 3.62254 14.724 3.55566 15.0019 3.55566C15.2796 3.55566 15.5499 3.62254 15.8126 3.75629C16.0753 3.88983 16.2867 4.09608 16.4469 4.37504L27.8154 24.0572C27.9756 24.3339 28.0505 24.6174 28.0401 24.9079C28.0296 25.1985 27.9548 25.467 27.8154 25.7135C27.6758 25.9597 27.4829 26.1608 27.2366 26.3166C26.9902 26.4724 26.7111 26.5504 26.3994 26.5504H3.60069ZM15.0001 22.4469C15.3661 22.4469 15.6807 22.3153 15.9438 22.0522C16.2069 21.7891 16.3385 21.4746 16.3385 21.1088C16.3385 20.7427 16.2069 20.4311 15.9438 20.1738C15.6807 19.9167 15.3661 19.7882 15.0001 19.7882C14.634 19.7882 14.3194 19.9167 14.0563 20.1738C13.7932 20.4311 13.6616 20.7427 13.6616 21.1088C13.6616 21.4746 13.7932 21.7891 14.0563 22.0522C14.3194 22.3153 14.634 22.4469 15.0001 22.4469ZM15.0001 18.75C15.3542 18.75 15.6511 18.6302 15.8907 18.3907C16.1303 18.1511 16.2501 17.8542 16.2501 17.5V13.9444C16.2501 13.5902 16.1303 13.2934 15.8907 13.0538C15.6511 12.8142 15.3542 12.6944 15.0001 12.6944C14.6459 12.6944 14.349 12.8142 14.1094 13.0538C13.8699 13.2934 13.7501 13.5902 13.7501 13.9444V17.5C13.7501 17.8542 13.8699 18.1511 14.1094 18.3907C14.349 18.6302 14.6459 18.75 15.0001 18.75Z" fill="#EF4229"/>
</g>
</svg>
